<?xml version="1.0" encoding="UTF-8"?>
<!DOCTYPE svg PUBLIC "-//W3C//DTD SVG 1.1//EN" "http://www.w3.org/Graphics/SVG/1.1/DTD/svg11.dtd">
<svg xmlns="http://www.w3.org/2000/svg" xmlns:xlink="http://www.w3.org/1999/xlink" version="1.1" width="150px" height="150px" viewBox="-0.5 -0.5 150 150"><defs><style type="text/css">@import url(https://fonts.googleapis.com/css?family=Architects+Daughter);&#xa;</style></defs><g><path d="M 18 115 C 18 91 18 79 38 79 C 24.67 79 24.67 55 38 55 C 51.33 55 51.33 79 38 79 C 58 79 58 91 58 115 Z" fill="none" stroke="none" pointer-events="all"/><path d="M 16.18 115.07 L 22.5 91.07 L 25.59 79.86 L 35.04 82.47 L 28.21 77.04 L 30.46 59.68 L 30.33 56.29 L 42.61 57.61 L 48.34 61.28 L 49.45 72 L 43.73 77.68 L 41.22 78.8 L 48.27 77.25 L 56.99 90.84 L 61.87 117.21 L 14.74 118.39" fill="rgb(255, 255, 255)" stroke="none" pointer-events="all"/><path d="M 18 115 M 18 115 C 15.67 90 16.82 80.08 38 79 M 18 115 C 21.42 87.58 22.1 80.83 38 79 M 38 79 C 21.29 75.93 25.48 55.56 38 55 M 38 79 C 21.73 75.99 22.85 54.61 38 55 M 38 55 C 53.62 58.03 49.55 77.53 38 79 M 38 55 C 53.64 55.63 46.81 82.27 38 79 M 38 79 C 55.44 77.57 55.8 91.24 58 115 M 38 79 C 57.35 83.32 61.75 91.45 58 115 M 58 115 C 52.12 111.12 36.63 117.4 18 115 M 58 115 C 47.67 117.52 38.81 115.26 18 115" fill="none" stroke="rgb(0, 0, 0)" stroke-width="2" stroke-linejoin="round" stroke-linecap="round" stroke-miterlimit="10" pointer-events="all"/><path d="M 48 115 C 48 83 48 67 73 67 C 56.33 67 56.33 35 73 35 C 89.67 35 89.67 67 73 67 C 98 67 98 83 98 115 Z" fill="none" stroke="none" pointer-events="all"/><path d="M 46.18 115.75 L 48.13 86.53 L 49.53 78.16 L 64.77 67.04 L 71.25 63.2 L 66.15 63.57 L 62.04 57.56 L 62.92 43.76 L 66.26 34.31 L 74.36 32.93 L 85.41 38.72 L 89.42 52.95 L 86 65.08 L 74.99 68.04 L 86.92 70.48 L 91.01 78.35 L 96.62 87.49 L 94.08 117.72 L 48.17 112.82" fill="rgb(255, 255, 255)" stroke="none" pointer-events="all"/><path d="M 48 115 M 48 115 C 48.53 85.15 45.68 68.04 73 67 M 48 115 C 46.21 80.67 45.78 69.79 73 67 M 73 67 C 54.71 64.76 54.2 36.1 73 35 M 73 67 C 58.44 66.04 52.35 35.25 73 35 M 73 35 C 88.93 36.88 90.17 70.02 73 67 M 73 35 C 87.4 39.22 93.21 67.94 73 67 M 73 67 C 100.44 63.36 94.58 83.94 98 115 M 73 67 C 100.03 69.12 98.24 81.66 98 115 M 98 115 C 83.25 117.84 73.62 116.46 48 115 M 98 115 C 85.7 114.34 72.22 116.07 48 115" fill="none" stroke="rgb(0, 0, 0)" stroke-width="2" stroke-linejoin="round" stroke-linecap="round" stroke-miterlimit="10" pointer-events="all"/><path d="M 88 115 C 88 91 88 79 110.5 79 C 95.5 79 95.5 55 110.5 55 C 125.5 55 125.5 79 110.5 79 C 133 79 133 91 133 115 Z" fill="none" stroke="none" pointer-events="all"/><path d="M 86.18 116.43 L 94.44 86.5 L 100.5 78.58 L 112.19 80.23 L 100.85 73.86 L 103.36 61.39 L 108.45 59.74 L 118.47 59.72 L 117.53 59.78 L 123.82 73.95 L 114.07 74.52 L 107.12 75.1 L 124.04 83.4 L 132.68 87.24 L 133.79 116.38 L 86.18 115.95" fill="rgb(255, 255, 255)" stroke="none" pointer-events="all"/><path d="M 88 115 M 88 115 C 90.2 87.47 89.34 75.36 110.5 79 M 88 115 C 84.96 89.42 85.12 82.11 110.5 79 M 110.5 79 C 94.24 76.15 91.57 58.38 110.5 55 M 110.5 79 C 94 78.39 93.58 59.45 110.5 55 M 110.5 55 C 126.94 54.16 122.95 78.8 110.5 79 M 110.5 55 C 124.42 54.87 128.32 80.05 110.5 79 M 110.5 79 C 136.55 78.48 131.25 90.09 133 115 M 110.5 79 C 131.54 76.55 134.87 91.38 133 115 M 133 115 C 124.37 118.34 115.64 115.99 88 115 M 133 115 C 116.16 114.36 101.66 113.46 88 115" fill="none" stroke="rgb(0, 0, 0)" stroke-width="2" stroke-linejoin="round" stroke-linecap="round" stroke-miterlimit="10" pointer-events="all"/></g></svg>